<svg width="177" height="48" viewBox="0 0 177 48" fill="none" xmlns="http://www.w3.org/2000/svg">
<path d="M45.6233 19.1818C45.9612 18.1839 46.2991 17.186 46.637 16.1881C46.9749 15.3011 47.538 14.5249 48.4391 14.8576C49.1149 15.1902 49.5654 15.9663 50.0159 16.6316C50.1286 16.8534 50.0159 17.186 50.0159 17.5186C50.0159 19.847 49.678 20.2906 47.3128 20.8449C46.7496 20.9558 46.0738 21.1776 45.398 21.3993C45.5106 24.5039 45.7359 27.6085 45.8485 30.713C45.9612 32.9306 46.0738 35.1481 45.9612 37.3657C45.8485 39.9158 44.3843 41.8008 42.019 42.9095C41.2306 43.2422 41.0053 43.6857 41.0053 44.4618C41.0053 47.012 40.7801 47.3446 38.0769 47.2337C37.739 47.2337 37.4011 47.2337 37.1758 47.2337C34.6979 47.2337 34.5853 47.012 34.2474 44.5727C28.3905 44.5727 22.4209 44.5727 16.564 44.5727C16.1135 47.1229 16.1135 47.1229 13.2977 47.1229C12.7345 47.1229 12.1714 47.1229 11.7208 47.1229C10.3693 47.012 9.80609 46.5685 9.80609 45.1271C9.91872 43.9074 9.58082 43.2422 8.34186 42.7986C5.52605 41.8008 3.94919 39.1397 4.06182 36.146C4.28709 31.6 4.39972 26.9432 4.73762 22.3972C4.73762 21.5102 4.51235 20.9558 3.61129 20.9558C3.38603 20.9558 3.2734 20.8449 3.04813 20.8449C0.457579 20.1797 -0.33085 19.0709 0.119681 16.5207C0.232314 15.8555 1.13337 14.9684 1.9218 14.6358C2.82286 14.3032 3.38603 15.0793 3.61129 15.8555C3.94919 16.8534 4.28709 17.9621 4.96288 18.96C5.07552 17.0751 5.18815 15.0793 5.30078 13.1944C5.41342 11.0877 5.41342 9.09194 5.63868 6.98527C5.86395 3.65895 8.56713 0.997896 12.3966 0.554387C14.7619 0.221755 17.2398 0 19.6051 0C24.8989 0 30.3052 0.110877 35.599 0.332632C37.1758 0.443509 38.8653 0.776141 40.3295 1.33053C43.1453 2.32842 44.4969 4.54597 44.7222 7.42878C44.9475 11.1986 45.1727 15.0793 45.2854 18.8491C45.5106 19.0709 45.6233 19.1818 45.6233 19.1818ZM38.9779 18.96C38.4148 18.96 37.9642 18.96 37.5137 18.96C33.2337 18.96 28.9536 18.96 24.6736 18.96C21.2946 18.96 17.803 18.96 14.424 18.96C12.7345 18.96 11.8335 18.1839 11.8335 16.7425C11.8335 14.4141 11.8335 12.1965 11.9461 9.86808C12.0587 8.09404 12.7345 7.42878 14.6493 7.42878C20.8441 7.42878 27.0389 7.42878 33.2337 7.42878C34.8105 7.42878 36.5 7.53966 37.6264 8.98106C38.3021 8.53755 38.9779 8.20492 39.9916 7.53966C38.7527 6.87439 37.9642 5.98738 36.8379 5.65474C35.7116 5.21123 34.36 5.10036 33.121 5.10036C26.9263 5.10036 20.8441 5.10036 14.6493 5.10036C11.3829 5.10036 9.46819 6.87439 9.35556 9.97896C9.24293 12.1965 9.24293 14.4141 9.24293 16.6316C9.24293 19.7362 11.1577 21.5102 14.3114 21.5102C22.083 21.5102 29.8547 21.5102 37.6264 21.5102C38.0769 21.5102 38.5274 21.5102 38.8653 21.5102C38.9779 20.5123 38.9779 19.847 38.9779 18.96ZM24.8989 40.0267C27.8273 37.3657 30.5305 34.8155 33.2337 32.2653C33.6842 31.8218 34.5853 31.4892 35.2611 31.4892C36.9506 31.3783 38.64 31.4892 40.4422 31.4892C40.4422 30.0478 40.5548 28.7172 40.3295 27.3867C40.2169 26.6106 39.6537 25.6127 38.9779 25.3909C38.3021 25.1692 37.2885 25.3909 36.6127 25.8344C35.599 26.3888 34.9232 27.3867 34.0221 28.1628C30.981 30.9348 27.9399 33.8176 24.8989 36.7004C24.561 36.4786 24.3357 36.2569 24.1104 36.0351C21.182 33.2632 18.2535 30.4913 15.3251 27.8302C14.5367 27.0541 13.8609 26.167 12.9598 25.6127C12.3966 25.28 11.3829 25.0583 10.7071 25.28C10.144 25.3909 9.58082 26.2779 9.58082 26.8323C9.46819 28.3846 9.58082 29.9369 9.58082 31.6C11.2703 31.6 12.9598 31.4892 14.5367 31.6C15.2125 31.6 16.0009 31.9327 16.564 32.3762C19.3799 34.8155 22.083 37.4765 24.8989 40.0267Z" fill="#076606"/>
<path d="M121.312 23.0625C119.848 23.0625 118.384 23.0625 116.92 23.0625C116.582 23.0625 116.131 22.7299 115.793 22.5081C114.667 21.3993 113.428 20.2906 112.414 19.0709C111.739 18.2948 111.063 18.073 110.049 18.073C108.923 18.1839 107.796 18.073 106.558 18.073C106.558 19.7362 106.558 21.2885 106.558 22.9516C105.206 22.9516 104.08 22.9516 102.728 22.9516C102.728 17.5186 102.728 12.1965 102.728 6.65265C103.854 6.65265 104.981 6.65265 106.107 6.65265C109.937 6.65265 113.653 6.65265 117.483 6.65265C117.933 6.65265 118.384 6.65265 118.834 6.76353C121.65 7.8723 122.664 9.75721 122.213 13.7488C121.988 16.0772 120.186 17.8513 117.708 18.073C117.483 18.073 117.258 18.073 116.694 18.1839C118.497 19.7362 120.073 21.1776 121.538 22.619C121.538 22.7299 121.425 22.8407 121.312 23.0625ZM106.558 14.4141C110.162 14.4141 113.653 14.5249 117.145 14.4141C118.834 14.3032 118.384 12.8618 118.384 11.8639C118.497 10.7551 117.933 10.2007 116.807 10.2007C115.118 10.2007 113.541 10.2007 111.851 10.2007C110.049 10.2007 108.247 10.2007 106.445 10.2007C106.558 11.6421 106.558 12.9727 106.558 14.4141Z" fill="#076606"/>
<path d="M153.976 38.6962C152.174 38.6962 150.484 38.6962 148.682 38.6962C148.682 37.5874 148.682 36.4786 148.682 35.259C151.611 35.259 154.539 35.259 157.58 35.259C157.58 38.5853 157.58 41.9116 157.58 45.1271C155.891 45.6815 154.314 45.4597 153.976 44.7944C152.962 45.0162 152.061 45.238 151.16 45.3488C148.57 45.4597 146.092 45.3488 143.501 45.3488C140.235 45.3488 138.095 43.353 138.095 40.0267C138.095 38.0309 138.095 35.9243 138.095 33.9285C137.982 31.0457 140.46 28.4955 143.501 28.7172C146.767 28.939 150.034 28.8281 153.3 28.7172C154.877 28.7172 156.003 29.3825 157.017 30.713C156.003 31.4892 155.102 32.1544 154.314 32.8197C153.525 32.5979 152.962 32.3762 152.286 32.3762C149.471 32.3762 146.655 32.3762 143.839 32.3762C142.262 32.3762 141.924 32.8197 141.924 34.2611C141.924 36.146 141.924 38.0309 141.924 39.9158C141.924 41.1355 142.487 41.6899 143.726 41.6899C146.204 41.6899 148.795 41.6899 151.273 41.6899C153.075 41.6899 154.089 40.5811 153.976 38.6962Z" fill="black"/>
<path d="M90.3384 6.65265C92.1405 6.65265 93.83 6.65265 95.6321 6.65265C98.4479 6.65265 100.588 8.64844 100.701 11.4204C100.701 13.7488 100.701 15.9663 100.701 18.2948C100.588 21.0667 98.5605 23.0625 95.7447 23.0625C92.1405 23.0625 88.6489 23.0625 85.0446 23.0625C82.3414 23.0625 80.2014 21.0667 80.2014 18.4056C80.0888 15.9663 80.0888 13.527 80.2014 11.0877C80.2014 8.53756 82.3414 6.65265 84.932 6.65265C86.7341 6.65265 88.5362 6.65265 90.3384 6.65265ZM90.3384 10.0898C88.7615 10.0898 87.1846 10.0898 85.6078 10.0898C84.4815 10.0898 83.9183 10.6442 83.9183 11.753C83.9183 13.7488 83.9183 15.7446 83.9183 17.7404C83.9183 18.96 84.4815 19.5144 85.7204 19.5144C88.8741 19.5144 92.0278 19.5144 95.1816 19.5144C96.3079 19.5144 96.8711 18.96 96.8711 17.8513C96.8711 15.8555 96.8711 13.8597 96.8711 11.8639C96.8711 10.6442 96.3079 10.0898 95.0689 10.0898C93.4921 10.2007 91.9152 10.0898 90.3384 10.0898Z" fill="#076606"/>
<path d="M91.6901 28.8281C93.3796 28.8281 95.0691 28.8281 96.6459 28.8281C99.687 28.8281 101.714 30.713 101.827 33.7067C101.94 35.9242 101.94 38.2527 101.827 40.4702C101.714 43.353 99.5744 45.3488 96.6459 45.3488C93.2669 45.3488 89.888 45.3488 86.509 45.3488C83.4679 45.3488 81.4405 43.4639 81.3279 40.4702C81.2153 38.2527 81.3279 35.9242 81.3279 33.7067C81.3279 31.0456 83.8058 28.6063 86.509 28.8281C88.3111 29.0499 90.0006 28.8281 91.6901 28.8281ZM91.4648 41.6899C93.0417 41.6899 94.7312 41.6899 96.308 41.6899C97.4344 41.6899 98.1102 41.2464 98.1102 40.0267C98.1102 38.0309 98.1102 36.0351 98.1102 33.9285C98.1102 32.8197 97.547 32.2653 96.4207 32.2653C93.1543 32.2653 90.0006 32.2653 86.7343 32.2653C85.7206 32.2653 85.1574 32.7088 85.1574 33.8176C85.1574 35.9242 85.1574 37.92 85.1574 40.0267C85.1574 41.2464 85.7206 41.6899 86.9595 41.6899C88.4237 41.6899 90.0006 41.6899 91.4648 41.6899Z" fill="black"/>
<path d="M144.74 19.5144C147.105 19.5144 149.358 19.5144 151.611 19.5144C153.3 19.5144 154.99 19.5144 156.792 19.5144C157.693 19.5144 158.706 19.2926 158.706 18.1839C158.706 17.0751 157.693 16.8533 156.792 16.7425C154.539 16.7425 152.174 16.7425 149.921 16.7425C146.88 16.6316 144.853 15.1902 144.289 12.7509C143.614 9.86808 145.528 6.76351 148.57 6.65263C152.962 6.43088 157.355 6.65263 161.86 6.65263C161.86 7.87229 161.86 8.98106 161.86 10.2007C158.819 10.2007 156.003 10.2007 153.075 10.2007C151.948 10.2007 150.935 10.2007 149.808 10.2007C148.907 10.3116 147.894 10.5333 147.894 11.753C147.894 12.8618 148.795 13.1944 149.808 13.1944C152.061 13.1944 154.426 13.1944 156.679 13.1944C158.369 13.1944 159.833 13.6379 161.184 14.7467C162.649 16.0772 163.099 17.7404 162.536 19.5144C161.86 21.6211 160.171 22.8407 158.031 22.9516C153.638 23.0625 149.245 22.9516 144.74 22.9516C144.74 21.8428 144.74 20.7341 144.74 19.5144Z" fill="#076606"/>
<path d="M127.958 22.9516C127.507 22.9516 127.169 22.9516 126.832 22.9516C125.93 22.9516 125.142 22.9516 124.241 22.9516C124.241 17.5186 124.241 12.0856 124.241 6.54175C125.367 6.54175 126.381 6.54175 127.507 6.54175C130.999 6.54175 134.378 6.65263 137.87 6.54175C139.784 6.54175 141.248 7.31789 142.037 8.87017C143.276 11.0877 143.276 13.527 142.037 15.7446C141.136 17.2968 139.559 18.073 137.644 18.073C134.828 18.073 132.013 18.073 129.197 18.073C128.296 18.073 127.958 18.2947 127.958 19.2926C127.958 20.5123 127.958 21.7319 127.958 22.9516ZM133.139 14.5249C134.491 14.5249 135.842 14.5249 137.194 14.5249C138.771 14.5249 138.996 14.1923 138.996 12.4182C138.996 10.5333 138.771 10.2007 137.194 10.2007C135.166 10.2007 133.139 10.2007 131.112 10.2007C127.733 10.2007 127.733 10.2007 127.958 13.527C127.958 14.3032 128.296 14.5249 128.972 14.5249C130.436 14.414 131.787 14.5249 133.139 14.5249Z" fill="#076606"/>
<path d="M115.343 45.3488C117.37 41.4681 119.398 37.6983 121.312 34.0394C122.101 32.5979 122.777 31.1565 123.678 29.7151C123.903 29.2716 124.579 28.939 125.142 28.8281C128.07 28.1629 129.534 29.4934 130.773 32.0436C132.688 36.2569 135.053 40.2485 137.194 44.3509C137.306 44.5727 137.419 44.7945 137.644 45.238C136.18 45.238 134.941 45.3488 133.815 45.238C133.477 45.238 132.913 44.5727 132.801 44.1292C132.125 41.9116 130.773 41.2464 128.521 41.579C126.606 41.8008 124.804 41.6899 122.889 41.579C122.101 41.579 121.425 41.6899 121.2 42.5769C120.524 45.0162 118.947 45.7923 116.469 45.3488C116.131 45.238 115.906 45.3488 115.343 45.3488ZM123.678 37.9201C125.592 37.9201 127.394 37.9201 129.309 37.9201C128.296 35.9243 127.394 33.9285 126.493 31.9327C125.592 33.9285 124.691 35.8134 123.678 37.9201Z" fill="black"/>
<path d="M78.1741 8.64844C77.1604 9.42458 76.1467 10.0898 75.3583 10.6442C74.5698 10.4225 74.0067 10.2007 73.4435 10.2007C70.2898 10.2007 67.1361 10.2007 63.9824 10.2007C62.5182 10.2007 62.0676 10.6442 62.0676 12.0856C62.0676 13.9706 62.0676 15.7446 62.0676 17.6295C62.0676 19.0709 62.5182 19.5144 64.095 19.5144C67.1361 19.5144 70.1772 19.5144 73.2183 19.5144C74.0067 19.5144 74.9077 19.0709 75.9214 18.7383C76.5972 19.2927 77.3857 20.0688 78.2867 20.9558C77.0478 22.1755 75.8088 23.0625 74.0067 23.0625C70.2898 23.0625 66.6856 23.0625 62.9687 23.0625C60.3781 23.0625 58.4634 21.0667 58.4634 18.6274C58.4634 16.0772 58.4634 13.6379 58.4634 11.0877C58.4634 8.64844 60.4908 6.65265 62.9687 6.65265C66.7982 6.65265 70.6277 6.65265 74.4572 6.65265C76.1467 6.65265 77.273 7.31791 78.1741 8.64844Z" fill="#076606"/>
<path d="M69.5013 42.0225C71.5287 38.1418 73.4434 34.372 75.3582 30.4913C75.9214 29.2716 76.7098 28.4955 78.174 28.8281C78.8498 28.939 79.6382 28.8281 80.6519 28.8281C79.0751 31.7109 77.6108 34.4829 76.1466 37.2548C74.9077 39.6941 73.5561 42.1334 72.2045 44.4618C71.9792 44.9053 71.4161 45.238 70.8529 45.238C67.2486 45.4597 67.2486 45.4597 65.5592 42.2443C63.4191 38.2527 61.2791 34.2611 59.1391 30.1586C58.9138 29.826 58.8012 29.3825 58.5759 28.8281C59.9275 28.8281 61.0538 28.7172 62.0675 28.8281C62.5181 28.8281 63.0812 29.3825 63.3065 29.826C65.4465 33.9285 67.4739 37.9201 69.5013 42.0225Z" fill="black"/>
<path d="M101.714 29.0499C104.643 28.1629 106.67 29.0499 107.909 31.7109C108.247 32.598 109.035 33.3741 109.486 34.1502C109.937 34.9264 110.5 35.7025 110.95 36.4787C112.414 34.2611 113.879 32.1545 115.23 30.0478C115.793 29.0499 116.582 28.6064 117.708 28.7173C118.497 28.8281 119.285 28.7173 120.299 28.7173C120.073 29.1608 119.961 29.3825 119.736 29.6043C117.708 32.4871 115.793 35.3699 113.766 38.2527C112.978 39.3615 112.527 40.4703 112.64 41.9117C112.752 42.9096 112.64 43.9074 112.64 45.0162C111.401 45.0162 110.162 45.0162 108.923 45.0162C108.923 43.5748 108.923 42.1334 108.923 40.692C108.923 40.0267 108.698 39.3615 108.36 38.918C106.332 35.8134 104.192 32.7088 102.165 29.7151C102.052 29.6043 101.827 29.2716 101.714 29.0499Z" fill="black"/>
<g clip-path="url(#clip0_83_1565)">
<path d="M176.953 28.939C176.953 30.1586 176.953 31.2674 176.953 32.3762C171.434 32.3762 165.915 32.3762 160.283 32.3762C160.283 31.1565 160.283 30.1586 160.283 28.939C165.802 28.939 171.321 28.939 176.953 28.939Z" fill="black"/>
<path d="M173 37.5958C173 37.1523 173 36.8197 173 36.3762C174.352 36.3762 175.591 36.3762 176.942 36.3762C176.942 36.8197 176.942 37.1523 176.942 37.5958C175.591 37.5958 174.464 37.5958 173 37.5958Z" fill="black"/>
<path d="M160.283 37.5958C160.283 37.1523 160.283 36.8197 160.283 36.3762C161.635 36.3762 162.874 36.3762 164.225 36.3762C164.225 36.8197 164.225 37.1523 164.225 37.5958C162.874 37.5958 161.747 37.5958 160.283 37.5958Z" fill="black"/>
<path d="M167 37.5958C167 37.1523 167 36.8197 167 36.3762C168.352 36.3762 169.591 36.3762 170.942 36.3762C170.942 36.8197 170.942 37.1523 170.942 37.5958C169.591 37.5958 168.464 37.5958 167 37.5958Z" fill="black"/>
<path d="M176.84 45.2548C171.209 45.2548 165.802 45.2548 160.283 45.2548C160.283 44.0351 160.283 42.9264 160.283 41.5958C165.802 41.5958 171.321 41.5958 176.84 41.5958C176.84 42.8155 176.84 43.9243 176.84 45.2548Z" fill="black"/>
</g>
<defs>
<clipPath id="clip0_83_1565">
<rect width="16.6696" height="16.3158" fill="white" transform="translate(160.283 28.939)"/>
</clipPath>
</defs>
</svg>
